<svg width="210" height="49" viewBox="0 0 210 49" fill="none" xmlns="http://www.w3.org/2000/svg">
<g clip-path="url(#clip0)">
<path d="M46.016 7.432H27.584V37H18.752V7.432H1.92V0.199997H46.016V7.432Z" fill="black"/>
<path d="M207 0.699951H45V6.94995H207V0.699951Z" fill="black" stroke="black"/>
<path d="M59.832 24.664L54.168 27.976H46.488V24.28H53.736V20.344H46.488V15.832H54.168L59.832 19.192V24.664ZM59.832 30.328V33.688L54.168 37H46.488V31.912H53.544V30.328H59.832ZM30.84 33.688L36.504 37H44.136V31.912H36.888V27.976H44.136V24.28H36.888V20.344H44.136V15.832H36.504L30.84 19.192V33.688ZM78.9161 21.928L85.3961 15.832L92.1161 17.512L81.7001 25.816L92.1161 35.224L85.3961 37L78.9161 30.376V21.928ZM76.6121 21.928L69.8441 15.832L63.2681 17.512L73.6841 25.816L63.2681 35.224L69.8441 37L76.6121 30.376V21.928ZM106.523 16.024H113.723V20.488H106.523V16.024ZM119.771 29.8V33.688L114.299 37H106.523V31.96H113.723V29.8H119.771ZM104.363 12.712V31.96V37L98.3625 33.688V20.488L94.0425 20.536V18.424L104.363 12.712ZM131.107 15.88V37.048H125.059V15.88H131.107ZM131.011 13.912H125.059V9.448H131.011V13.912ZM139.753 15.88H145.849V17.944L152.953 15.88V20.392H145.849V36.952H139.753V15.88ZM168.505 19.192L162.841 15.88H155.257V20.392H162.505V36.952H168.505V19.192ZM176.668 39.16V43.048L182.284 46.36H189.868V41.32H182.86V39.16H176.668ZM176.668 19.192L182.284 15.88H189.868V20.488H182.764V30.424H189.868V34.312H182.284L176.668 30.952V19.192ZM205.516 15.88H192.268V20.488H199.42V30.424H192.268V34.312H199.42V41.32H192.268V46.36H199.9L205.516 43.048V15.88Z" fill="black"/>
</g>
<defs>
<clipPath id="clip0">
<rect width="210" height="49" fill="white"/>
</clipPath>
</defs>
</svg>
