<svg width="297" height="81" viewBox="0 0 297 81" fill="none" xmlns="http://www.w3.org/2000/svg">
<path d="M71.016 22.432H52.584V52H43.752V22.432H26.92V15.2H71.016V22.432Z" fill="white"/>
<path d="M232 15.7H70V21.95H232V15.7Z" fill="white" stroke="white"/>
<path d="M84.832 39.664L79.168 42.976H71.488V39.28H78.736V35.344H71.488V30.832H79.168L84.832 34.192V39.664ZM84.832 45.328V48.688L79.168 52H71.488V46.912H78.544V45.328H84.832ZM55.84 48.688L61.504 52H69.136V46.912H61.888V42.976H69.136V39.28H61.888V35.344H69.136V30.832H61.504L55.84 34.192V48.688ZM103.916 36.928L110.396 30.832L117.116 32.512L106.7 40.816L117.116 50.224L110.396 52L103.916 45.376V36.928ZM101.612 36.928L94.8441 30.832L88.2681 32.512L98.6841 40.816L88.2681 50.224L94.8441 52L101.612 45.376V36.928ZM131.523 31.024H138.723V35.488H131.523V31.024ZM144.771 44.8V48.688L139.299 52H131.523V46.96H138.723V44.8H144.771ZM129.363 27.712V46.96V52L123.363 48.688V35.488L119.043 35.536V33.424L129.363 27.712ZM156.107 30.88V52.048H150.059V30.88H156.107ZM156.011 28.912H150.059V24.448H156.011V28.912ZM164.753 30.88H170.849V32.944L177.953 30.88V35.392H170.849V51.952H164.753V30.88ZM193.505 34.192L187.841 30.88H180.257V35.392H187.505V51.952H193.505V34.192ZM201.668 54.16V58.048L207.284 61.36H214.868V56.32H207.86V54.16H201.668ZM201.668 34.192L207.284 30.88H214.868V35.488H207.764V45.424H214.868V49.312H207.284L201.668 45.952V34.192ZM230.516 30.88H217.268V35.488H224.42V45.424H217.268V49.312H224.42V56.32H217.268V61.36H224.9L230.516 58.048V30.88Z" fill="white"/>
</svg>
